<svg id="Capa_1" data-name="Capa 1" xmlns="http://www.w3.org/2000/svg" viewBox="0 0 581.03 662.45"><defs><style>.cls-1,.cls-2,.cls-3,.cls-4{fill:#fff;}.cls-2,.cls-3,.cls-4{stroke:#fff;stroke-miterlimit:10;}.cls-2{stroke-width:1.94px;}.cls-3{stroke-width:1.34px;}.cls-4{stroke-width:1.87px;}</style></defs><path class="cls-1" d="M577.39,229.86H528.82V118S447.82,0,290.37,0C131.7,0,52.19,118,52.19,118V229.86H3.62A3.61,3.61,0,0,0,0,233.46H0V367a3.61,3.61,0,0,0,3.61,3.61H52.19V576.86l73.51,85.62h44.41l-1.78-214.25,36.23-8.08-55.9-12.31-14.85,185L91.19,563.21l-.47-.55v-429S156.84,38.1,290.46,38.1s199.83,95.56,199.83,95.56v429L447.42,613,432.19,427.72c-2.68.6-52.62,11.73-55.8,12.45l36,8.06-.92,214.1h43l74.38-85.7v-206h48.57A3.6,3.6,0,0,0,581,367V233.47a3.6,3.6,0,0,0-3.59-3.61ZM44.56,278.08a.3.3,0,0,1-.28.28h-32a.29.29,0,0,1-.29-.27h0v-4.19H44.23a.3.3,0,0,1,.28.28Zm0-11a.3.3,0,0,1-.28.28h-32a.29.29,0,0,1-.29-.27h0v-24.2a2.64,2.64,0,0,1,2.63-2.62H44.23a.3.3,0,0,1,.28.28Zm524.51,11a.27.27,0,0,1-.26.28h-32a.3.3,0,0,1-.28-.28v-3.91a.3.3,0,0,1,.28-.28H569Zm0-11a.27.27,0,0,1-.26.28h-32a.3.3,0,0,1-.28-.28V240.5a.3.3,0,0,1,.28-.28h29.62a2.64,2.64,0,0,1,2.62,2.62Z" transform="translate(0 -0.03)"/><path class="cls-1" d="M133.82,197.82v94.33l20.81,25.26h272l20.8-25.26V197.82ZM278.49,215.4l-43.13,66.4h-10.8l45.84-66.4Zm-103.64,0H224.7l-42.79,66.4h-7.06Zm231.56,66.4H253l42.45-66.4h111Z" transform="translate(0 -0.03)"/><path class="cls-2" d="M221.25,499.56V386.82h43.67c18.84,0,19.25,13.35,19.25,25.06v3.26c0,11.17-.41,24.92-18.43,26.69,18.7,1.5,19.11,13.89,19.11,24.92v7.76c0,11.71-.41,25.05-19.25,25.05Zm40.13-84.14c0-6.27-1.78-9.81-7.51-9.81H244V432h9.83c5.73,0,7.51-3.54,7.51-9.8v-6.81Zm.68,45.34c0-6.27-1.78-9.94-7.51-9.94H244v30h10.52c5.74,0,7.51-3.54,7.51-9.8V460.76Z" transform="translate(0 -0.03)"/><path class="cls-3" d="M231.32,593.14V525.19H220.71V512.25h37.14v12.94H247.14v67.95Z" transform="translate(0 -0.03)"/><path class="cls-3" d="M307.56,578.13c0,10-8.52,15-22.07,15s-22.07-5-22.07-15v-49.8c0-10,8.52-16,22-16s22.14,6,22.14,16V558h-28.3v16.51c0,3.29,2.37,5.72,6.25,5.72s6.26-2.34,6.26-5.62v-5.25h15.79ZM291.76,531c0-3.29-2.37-5.72-6.34-5.72s-6.16,2.34-6.16,5.63V545h12.5Z" transform="translate(0 -0.03)"/><path class="cls-3" d="M344.56,557.87h15.8v20.26c0,10-8.53,15-22.08,15s-22.07-5-22.07-15v-49.8c0-10,8.53-16,22-16s22.17,6,22.17,16V545H344.56V531c0-3.29-2.37-5.73-6.35-5.73s-6.16,2.35-6.16,5.63v43.62c0,3.28,2.37,5.72,6.25,5.72s6.26-2.35,6.26-5.63Z" transform="translate(0 -0.03)"/><path class="cls-4" d="M337.56,450.26h22v28.29c0,14-11.91,20.95-30.82,20.95s-30.82-6.93-30.82-20.95V409c0-14,11.9-22.4,30.68-22.4s31,8.38,31,22.4v23.32h-22V412.67c0-4.59-3.31-8-8.87-8s-8.6,3.27-8.6,7.86v60.9c0,4.59,3.31,8,8.73,8s8.74-3.28,8.74-7.86Z" transform="translate(0 -0.03)"/></svg>