<?xml version="1.0" encoding="UTF-8"?>
<svg id="Capa_1" data-name="Capa 1" xmlns="http://www.w3.org/2000/svg" viewBox="0 0 581 662.48">
  <defs>
    <style>
      .cls-1 {
        stroke-width: 1.34px;
      }

      .cls-1, .cls-2, .cls-3 {
        stroke: #000;
        stroke-miterlimit: 10;
      }

      .cls-2 {
        stroke-width: 1.87px;
      }

      .cls-3 {
        stroke-width: 1.94px;
      }
    </style>
  </defs>
  <path d="m577.39,229.86h-48.57v-111.86S447.82,0,290.37,0,52.19,118,52.19,118v111.86H3.62C1.63,229.85,0,231.47,0,233.46H0v133.54c0,1.99,1.62,3.61,3.61,3.61h48.58v206.25l73.51,85.62h44.41l-1.78-214.25,36.23-8.08-55.9-12.31-14.85,185-42.62-49.63-.47-.55V133.66s66.12-95.56,199.74-95.56,199.83,95.56,199.83,95.56v429l-42.87,50.34-15.23-185.28c-2.68.6-52.62,11.73-55.8,12.45l36,8.06-.92,214.1h43l74.38-85.7v-206h48.57c1.99-.01,3.59-1.63,3.58-3.62,0,0,0,0,0-.01v-133.53c0-1.99-1.6-3.6-3.59-3.61h-.02ZM44.56,278.08c0,.15-.13.27-.28.28H12.28c-.15,0-.28-.12-.29-.27h0v-4.19h32.24c.15,0,.27.13.28.28l.05,3.9Zm0-11c0,.15-.13.27-.28.28H12.28c-.15,0-.28-.12-.29-.27h0v-24.2c.01-1.45,1.18-2.61,2.63-2.62h29.61c.15,0,.27.13.28.28l.05,26.53Zm524.51,11c0,.15-.11.27-.26.28h-32c-.15,0-.27-.13-.28-.28v-3.91c0-.15.13-.27.28-.28h32.19l.07,4.19Zm0-11c0,.15-.11.27-.26.28h-32c-.15,0-.27-.13-.28-.28v-26.58c0-.15.13-.27.28-.28h29.62c1.44.01,2.61,1.18,2.62,2.62l.02,24.24Z"/>
  <path d="m133.82,197.82v94.33l20.81,25.26h272l20.8-25.26v-94.33H133.82Zm144.67,17.58l-43.13,66.4h-10.8l45.84-66.4h8.09Zm-103.64,0h49.85l-42.79,66.4h-7.06v-66.4Zm231.56,66.4h-153.41l42.45-66.4h111l-.04,66.4Z"/>
  <path class="cls-3" d="m221.25,499.56v-112.74h43.67c18.84,0,19.25,13.35,19.25,25.06v3.26c0,11.17-.41,24.92-18.43,26.69,18.7,1.5,19.11,13.89,19.11,24.92v7.76c0,11.71-.41,25.05-19.25,25.05h-44.35Zm40.13-84.14c0-6.27-1.78-9.81-7.51-9.81h-9.87v26.39h9.83c5.73,0,7.51-3.54,7.51-9.8v-6.81l.04.03Zm.68,45.34c0-6.27-1.78-9.94-7.51-9.94h-10.55v30h10.52c5.74,0,7.51-3.54,7.51-9.8v-10.26h.03Z"/>
  <path class="cls-1" d="m231.32,593.14v-67.95h-10.61v-12.94h37.14v12.94h-10.71v67.95h-15.82Z"/>
  <path class="cls-1" d="m307.56,578.13c0,10-8.52,15-22.07,15s-22.07-5-22.07-15v-49.8c0-10,8.52-16,22-16s22.14,6,22.14,16v29.67h-28.3v16.51c0,3.29,2.37,5.72,6.25,5.72s6.26-2.34,6.26-5.62v-5.25h15.79v8.77Zm-15.8-47.13c0-3.29-2.37-5.72-6.34-5.72s-6.16,2.34-6.16,5.63v14.09h12.5v-14Z"/>
  <path class="cls-1" d="m344.56,557.87h15.8v20.26c0,10-8.53,15-22.08,15s-22.07-5-22.07-15v-49.8c0-10,8.53-16,22-16s22.17,6,22.17,16v16.67h-15.82v-14c0-3.29-2.37-5.73-6.35-5.73s-6.16,2.35-6.16,5.63v43.62c0,3.28,2.37,5.72,6.25,5.72s6.26-2.35,6.26-5.63v-16.74Z"/>
  <path class="cls-2" d="m337.56,450.26h22v28.29c0,14-11.91,20.95-30.82,20.95s-30.82-6.93-30.82-20.95v-69.55c0-14,11.9-22.4,30.68-22.4s31,8.38,31,22.4v23.32h-22v-19.65c0-4.59-3.31-8-8.87-8s-8.6,3.27-8.6,7.86v60.9c0,4.59,3.31,8,8.73,8s8.74-3.28,8.74-7.86l-.04-23.31Z"/>
</svg>