<svg id="Capa_1" data-name="Capa 1" xmlns="http://www.w3.org/2000/svg" viewBox="0 0 581 662.49"><defs><style>.cls-1,.cls-2,.cls-3{stroke:#000;stroke-miterlimit:10;}.cls-1{stroke-width:1.94px;}.cls-2{stroke-width:1.34px;}.cls-3{stroke-width:1.87px;}</style></defs><path d="M592.83,294.53H544.26V182.7s-81-118-238.45-118c-158.67,0-238.18,118-238.18,118V294.53H19.06a3.61,3.61,0,0,0-3.62,3.61v133.5a3.61,3.61,0,0,0,3.62,3.61H67.63V641.53l73.51,85.62c5.2,0,44.41,0,44.41,0L183.77,512.9,220,504.82l-55.9-12.31-14.85,185-42.62-49.63-.47-.55v-429s66.12-95.56,199.74-95.56,199.83,95.56,199.83,95.56V627.3l-42.87,50.38L447.63,492.39c-2.68.6-52.62,11.73-55.8,12.45l36,8.06L426.91,727c8.36,0,43,0,43,0l74.38-85.7V435.25h48.57a3.6,3.6,0,0,0,3.61-3.61V298.14A3.6,3.6,0,0,0,592.83,294.53ZM60,342.75a.29.29,0,0,1-.28.28h-32a.28.28,0,0,1-.29-.28v-4.19H59.67a.29.29,0,0,1,.28.28Zm0-11a.29.29,0,0,1-.28.28h-32a.28.28,0,0,1-.29-.28v-24.2a2.64,2.64,0,0,1,2.63-2.62H59.67a.29.29,0,0,1,.28.28Zm524.51,11a.27.27,0,0,1-.28.28h-32a.29.29,0,0,1-.28-.28v-3.91a.29.29,0,0,1,.28-.28h32.24Zm0-11a.27.27,0,0,1-.28.28h-32a.29.29,0,0,1-.28-.28V305.17a.29.29,0,0,1,.28-.28h29.62a2.63,2.63,0,0,1,2.62,2.62Z" transform="translate(-15.44 -64.67)"/><path d="M149.26,262.49v94.33l20.81,25.26h272l20.8-25.26V262.49Zm144.67,17.58-43.13,66.4H240l45.84-66.4Zm-103.64,0h49.85l-42.79,66.4h-7.06Zm231.56,66.4H268.41l42.45-66.4h111Z" transform="translate(-15.44 -64.67)"/><path class="cls-1" d="M236.69,564.23V451.49h43.67c18.84,0,19.25,13.35,19.25,25.06v3.26c0,11.17-.41,24.92-18.43,26.69,18.7,1.5,19.11,13.89,19.11,24.92v7.76c0,11.71-.41,25.05-19.25,25.05Zm40.13-84.14c0-6.27-1.78-9.81-7.51-9.81h-9.83V496.7h9.83c5.73,0,7.51-3.54,7.51-9.8v-6.81Zm.68,45.34c0-6.27-1.78-9.94-7.51-9.94H259.48v30H270c5.74,0,7.51-3.54,7.51-9.8V525.43Z" transform="translate(-15.44 -64.67)"/><path class="cls-2" d="M246.76,657.81V589.86H236.15V576.92h37.14v12.94H262.58v67.95Z" transform="translate(-15.44 -64.67)"/><path class="cls-2" d="M323,642.8c0,10-8.52,15-22.07,15s-22.07-5-22.07-15V593c0-10,8.52-16,22-16S323,583,323,593v29.64H294.7v16.51c0,3.29,2.37,5.72,6.25,5.72s6.26-2.34,6.26-5.62V634H323ZM307.2,595.62c0-3.29-2.37-5.72-6.34-5.72s-6.16,2.34-6.16,5.63v14.16h12.5Z" transform="translate(-15.44 -64.67)"/><path class="cls-2" d="M360,622.54H375.8V642.8c0,10-8.53,15-22.08,15s-22.07-5-22.07-15V593c0-10,8.53-16,22-16s22.17,6,22.17,16v16.7H360V595.62c0-3.29-2.37-5.73-6.35-5.73s-6.16,2.35-6.16,5.63v43.62c0,3.28,2.37,5.72,6.25,5.72s6.26-2.35,6.26-5.63V622.54Z" transform="translate(-15.44 -64.67)"/><path class="cls-3" d="M353,514.93H375v28.29c0,14-11.91,20.95-30.82,20.95s-30.82-6.93-30.82-20.95V473.68c0-14,11.9-22.4,30.68-22.4s31,8.38,31,22.4V497H353V477.34c0-4.59-3.31-8-8.87-8s-8.6,3.27-8.6,7.86v60.9c0,4.59,3.31,8,8.73,8s8.74-3.28,8.74-7.86V514.93Z" transform="translate(-15.44 -64.67)"/></svg>